<svg width="218" height="25" viewBox="0 0 218 25" fill="none" xmlns="http://www.w3.org/2000/svg">
<path d="M14.976 3.698H9.45V1.952H7.074V3.698H1.494V5.552H14.976V3.698ZM2.592 9.062C2.592 10.88 4.716 11.906 8.262 11.906C11.808 11.906 13.95 10.88 13.95 9.062C13.95 7.244 11.808 6.2 8.262 6.2C4.716 6.2 2.592 7.244 2.592 9.062ZM11.484 9.062C11.484 9.782 10.404 10.142 8.262 10.142C6.12 10.142 5.058 9.782 5.058 9.062C5.058 8.288 6.084 7.964 8.262 7.964C10.44 7.964 11.484 8.288 11.484 9.062ZM15.786 12.698H0.774V14.606H7.074V18.566H9.45V14.606H15.786V12.698ZM28.0712 1.952V18.53H30.4652V1.952H28.0712ZM17.5772 3.68V5.57H23.1032C22.7612 9.242 20.9252 11.852 16.6952 13.868L17.9372 15.74C23.8232 12.914 25.5332 8.738 25.5332 3.68H17.5772ZM49.7191 1.97H47.3251V13.958H49.7191V1.97ZM46.2811 10.088C43.6171 9.224 42.3931 7.154 42.3931 5.228V5.03H45.6691V3.158H36.6511V5.03H39.9811V5.228C39.9811 7.298 38.7571 9.476 36.0211 10.34L37.2271 12.194C39.1711 11.564 40.4851 10.322 41.2231 8.666C41.9971 10.178 43.2031 11.33 45.0751 11.906L46.2811 10.088ZM41.0611 16.37V12.878H38.6851V18.26H50.1331V16.37H41.0611ZM63.3362 1.97V18.53H65.7122V1.97H63.3362ZM57.2162 9.71C59.7182 9.71 61.5542 8.252 61.5542 6.182C61.5542 4.094 59.7182 2.636 57.2162 2.636C54.7142 2.636 52.8602 4.094 52.8602 6.182C52.8602 8.252 54.7142 9.71 57.2162 9.71ZM57.2162 4.562C58.4402 4.562 59.2862 5.102 59.2862 6.182C59.2862 7.19 58.4402 7.766 57.2162 7.766C55.9922 7.766 55.1462 7.19 55.1462 6.182C55.1462 5.102 55.9922 4.562 57.2162 4.562ZM62.4002 10.124C58.8902 10.646 54.7682 10.682 51.8882 10.682L52.1582 12.626C53.3282 12.626 54.6602 12.608 56.1002 12.554V18.044H58.4762V12.41C59.8442 12.284 61.1762 12.122 62.5442 11.852L62.4002 10.124ZM79.2574 1.952V5.354H75.7294C74.9914 3.914 73.7674 3.122 72.2554 3.122C69.7894 3.122 67.9714 5.39 67.9714 9.026C67.9714 12.68 69.7894 14.966 72.2554 14.966C73.8574 14.984 75.1354 14.084 75.8734 12.428H79.2574V18.584H81.6334V1.952H79.2574ZM72.2554 12.806C71.0314 12.806 70.2214 11.492 70.2214 9.026C70.2214 6.56 71.0314 5.264 72.2554 5.264C73.4794 5.264 74.3074 6.56 74.3074 9.026C74.3074 11.492 73.4794 12.806 72.2554 12.806ZM76.4314 10.502C76.5034 10.052 76.5394 9.548 76.5394 9.026C76.5394 8.396 76.4854 7.802 76.3774 7.262H79.2574V10.502H76.4314ZM96.8346 2.6H94.4946V4.49H87.6726V2.6H85.3146V9.944H96.8346V2.6ZM94.4946 8.054H87.6726V6.344H94.4946V8.054ZM98.6166 11.51H83.6046V13.4H89.8686V18.566H92.2446V13.4H98.6166V11.51ZM118.284 8.234H115.872V1.988H113.496V18.566H115.872V10.196H118.284V8.234ZM110.832 5.408H112.254V3.5H103.11V5.408H104.532V12.824H102.678L102.93 14.768C105.756 14.768 109.518 14.678 112.884 14.102L112.74 12.374C112.11 12.464 111.48 12.5 110.832 12.554V5.408ZM106.836 5.408H108.546V12.716C107.97 12.734 107.394 12.752 106.836 12.77V5.408ZM134.026 5.858H131.83V1.988H129.454V11.672H131.83V7.802H134.026V5.858ZM127.888 6.938C127.888 4.58 125.944 2.87 123.406 2.87C120.85 2.87 118.906 4.58 118.906 6.938C118.906 9.314 120.85 10.988 123.406 10.988C125.944 10.988 127.888 9.314 127.888 6.938ZM121.228 6.938C121.228 5.624 122.11 4.886 123.406 4.886C124.648 4.886 125.584 5.624 125.584 6.938C125.584 8.234 124.648 8.99 123.406 8.99C122.11 8.99 121.228 8.234 121.228 6.938ZM120.778 14.264H129.454V18.566H131.83V12.374H120.778V14.264ZM150.055 8.45H147.679V1.97H145.303V18.548H147.679V10.412H150.055V8.45ZM140.623 2.258H138.247V4.418H134.575V6.308H144.223V4.418H140.623V2.258ZM139.453 7.244C137.041 7.244 135.241 8.882 135.241 11.186C135.241 13.544 137.041 15.164 139.453 15.164C141.847 15.164 143.629 13.544 143.629 11.186C143.629 8.882 141.847 7.244 139.453 7.244ZM139.453 13.22C138.301 13.22 137.509 12.5 137.509 11.204C137.509 9.908 138.301 9.17 139.453 9.17C140.605 9.17 141.379 9.944 141.379 11.186C141.379 12.482 140.605 13.22 139.453 13.22ZM162.034 1.952V7.928H159.442V9.854H162.034V18.584H164.428V1.952H162.034ZM153.466 9.584H158.56V3.374H151.09V5.264H156.202V7.73H151.126V14.75H152.494C155.23 14.75 157.462 14.642 159.91 14.264L159.694 12.338C157.606 12.68 155.716 12.788 153.466 12.806V9.584ZM185.14 8.288H182.818V1.952H180.442V18.512H182.818V10.25H185.14V8.288ZM170.596 3.662V5.588H176.014C175.582 9.278 173.548 11.87 169.678 13.868L171.01 15.686C176.536 12.896 178.408 8.648 178.408 3.662H170.596ZM197.137 1.952V18.53H199.531V1.952H197.137ZM186.643 3.68V5.57H192.169C191.827 9.242 189.991 11.852 185.761 13.868L187.003 15.74C192.889 12.914 194.599 8.738 194.599 3.68H186.643Z" fill="#0E7159"/>
<path d="M209.888 20.5898C210.134 20.5898 210.342 20.5078 210.512 20.3438L217.033 13.9541C217.139 13.8604 217.213 13.7593 217.257 13.6509C217.301 13.5425 217.323 13.4238 217.323 13.2949C217.323 13.166 217.301 13.0474 217.257 12.939C217.213 12.8306 217.139 12.7295 217.033 12.6357L210.512 6.24609C210.342 6.08203 210.134 6 209.888 6C209.724 6 209.574 6.03662 209.439 6.10986C209.305 6.18311 209.198 6.28711 209.119 6.42188C209.04 6.55664 209 6.70605 209 6.87012C209 7.11035 209.091 7.32129 209.272 7.50293L215.205 13.2949L209.272 19.0869C209.091 19.2686 209 19.4795 209 19.7197C209 19.8779 209.04 20.0259 209.119 20.1636C209.198 20.3013 209.305 20.4067 209.439 20.48C209.574 20.5532 209.724 20.5898 209.888 20.5898Z" fill="#0E7159"/>
</svg>
