<svg width="272" height="25" viewBox="0 0 272 25" fill="none" xmlns="http://www.w3.org/2000/svg">
<path d="M9.234 11.6V13.22H12.348V14.534H14.724V1.97H12.348V11.6H9.234ZM6.048 8.45C8.442 8.45 10.17 7.262 10.17 5.498C10.17 3.716 8.442 2.528 6.048 2.528C3.618 2.528 1.908 3.716 1.908 5.498C1.908 7.262 3.618 8.45 6.048 8.45ZM6.048 4.256C7.146 4.256 7.92 4.688 7.92 5.498C7.92 6.308 7.146 6.722 6.048 6.722C4.896 6.722 4.158 6.308 4.158 5.498C4.158 4.688 4.896 4.256 6.048 4.256ZM5.166 16.37V14.102H7.452V10.97C8.82 10.88 10.116 10.736 11.412 10.502L11.25 8.81C7.758 9.242 3.726 9.314 0.702 9.314L1.008 11.204C2.25 11.204 3.636 11.186 5.094 11.114V13.328H2.79V18.26H15.084V16.37H5.166ZM32.0492 8.45H29.6732V1.97H27.2972V18.548H29.6732V10.412H32.0492V8.45ZM22.6172 2.258H20.2412V4.418H16.5692V6.308H26.2172V4.418H22.6172V2.258ZM21.4472 7.244C19.0352 7.244 17.2352 8.882 17.2352 11.186C17.2352 13.544 19.0352 15.164 21.4472 15.164C23.8412 15.164 25.6232 13.544 25.6232 11.186C25.6232 8.882 23.8412 7.244 21.4472 7.244ZM21.4472 13.22C20.2952 13.22 19.5032 12.5 19.5032 11.204C19.5032 9.908 20.2952 9.17 21.4472 9.17C22.5992 9.17 23.3732 9.944 23.3732 11.186C23.3732 12.482 22.5992 13.22 21.4472 13.22ZM43.9023 1.952V18.584H46.2784V1.952H43.9023ZM38.9703 3.248H36.5943V5.66C36.5943 8.9 35.2263 12.068 32.3283 13.328L33.7503 15.29C35.7843 14.354 37.0803 12.608 37.8183 10.358C38.5563 12.392 39.7983 14.03 41.7423 14.894L43.0923 12.968C40.2843 11.762 38.9703 8.738 38.9703 5.66V3.248ZM61.7855 6.452H52.6595V2.564H50.2835V8.342H61.7855V6.452ZM48.4295 10.034V11.942H63.4415V10.034H48.4295ZM52.5155 13.256H50.1215V18.206H61.8755V16.298H52.5155V13.256ZM71.1394 6.308H69.1414V8.072H81.2374V6.308H79.2574V4.184H81.3634V2.42H69.0334V4.184H71.1394V6.308ZM76.8994 6.308H73.4974V4.184H76.8994V6.308ZM67.7194 8.918V10.79H82.6954V8.918H67.7194ZM71.8054 15.812H80.8774V11.708H69.4294V13.418H78.5374V14.228H69.4474V18.422H81.3094V16.712H71.8054V15.812ZM94.1526 8.594H95.4846V14.264H97.7346V1.97H95.4846V6.686H94.1526V2.276H91.9386V13.94H94.1526V8.594ZM91.1646 9.764C89.6526 10.034 88.3386 10.124 86.5566 10.142V8.486H90.5346V3.32H84.2526V5.174H88.2486V6.758H84.2706V12.014H85.4226C87.8526 12.014 89.4906 11.978 91.3626 11.636L91.1646 9.764ZM88.9506 16.37V13.13H86.5746V18.26H98.1486V16.37H88.9506ZM110.848 1.952V18.584H113.224V1.952H110.848ZM104.314 3.122C101.812 3.122 99.9578 5.39 99.9578 9.026C99.9578 12.68 101.812 14.966 104.314 14.966C106.816 14.966 108.67 12.68 108.67 9.026C108.67 5.39 106.816 3.122 104.314 3.122ZM104.314 5.264C105.538 5.264 106.384 6.56 106.384 9.026C106.384 11.492 105.538 12.806 104.314 12.806C103.09 12.806 102.244 11.492 102.244 9.026C102.244 6.56 103.09 5.264 104.314 5.264ZM130.264 7.442V10.736H132.64V1.97H130.264V5.516H127.6C127.168 3.734 125.458 2.582 123.352 2.582C120.868 2.582 118.996 4.22 118.996 6.488C118.996 8.792 120.868 10.412 123.352 10.412C125.44 10.412 127.186 9.224 127.618 7.442H130.264ZM121.264 6.488C121.264 5.264 122.128 4.544 123.352 4.544C124.576 4.544 125.458 5.264 125.458 6.488C125.458 7.73 124.576 8.45 123.352 8.45C122.128 8.45 121.264 7.73 121.264 6.488ZM131.56 11.546H129.22V12.788C129.22 14.3 128.464 15.794 126.646 16.658V11.69H124.468V13.31H122.794V11.69H120.598V18.35H126.646V17.108L127.582 18.53C128.95 18.008 129.796 17.09 130.354 15.938C130.912 17.09 131.812 18.026 133.198 18.53L134.368 16.766C132.334 16.046 131.56 14.516 131.56 12.788V11.546ZM124.468 16.586H122.794V15.02H124.468V16.586ZM150.055 8.09H147.643V1.97H145.267V18.584H147.643V10.052H150.055V8.09ZM137.671 5.426H143.035V3.5H135.295V14.606H136.717C139.597 14.606 141.865 14.498 144.367 14.066L144.133 12.104C141.991 12.464 140.029 12.608 137.671 12.626V5.426ZM159.046 10.034H162.034V14.048H164.41V1.97H162.034V4.58H159.046V3.302H151.234V11.402H159.046V10.034ZM156.724 9.53H153.574V5.156H156.724V9.53ZM162.034 6.47V8.144H159.046V6.47H162.034ZM155.842 16.37V12.914H153.466V18.26H164.77V16.37H155.842ZM182.926 2.672H171.676V8.846H182.926V2.672ZM180.586 6.974H174.016V4.526H180.586V6.974ZM169.822 10.16V12.032H176.356V14.858H178.732V12.032H184.834V10.16H169.822ZM173.944 13.454H171.568V18.26H183.178V16.37H173.944V13.454ZM197.173 1.952V18.584H199.549V1.952H197.173ZM191.053 3.068C188.461 3.068 186.499 4.778 186.499 7.154C186.499 9.53 188.461 11.24 191.053 11.24C193.645 11.24 195.625 9.53 195.625 7.154C195.625 4.778 193.645 3.068 191.053 3.068ZM191.053 5.102C192.349 5.102 193.303 5.858 193.303 7.154C193.303 8.45 192.349 9.206 191.053 9.206C189.757 9.206 188.803 8.45 188.803 7.154C188.803 5.858 189.757 5.102 191.053 5.102ZM186.103 15.218C188.965 15.218 192.853 15.182 196.417 14.462L196.273 12.752C192.781 13.274 188.713 13.292 185.797 13.292L186.103 15.218ZM203.194 10.178C206.092 9.764 208.108 8.576 209.116 6.848C210.124 8.576 212.14 9.764 215.038 10.178L215.884 8.324C212.5 7.892 210.772 6.308 210.538 4.706H215.236V2.816H202.942V4.706H207.712C207.478 6.308 205.732 7.892 202.33 8.324L203.194 10.178ZM216.604 11.132H201.628V13.022H207.874V18.584H210.25V13.022H216.604V11.132ZM229.465 1.97V18.548H231.715V1.97H229.465ZM226.099 7.568H224.029V9.494H226.099V17.81H228.313V2.24H226.099V7.568ZM222.787 3.41H220.501V6.2C220.501 9.026 219.619 11.996 217.189 13.472L218.611 15.254C220.123 14.336 221.077 12.806 221.653 10.934C222.175 12.608 223.021 14.012 224.461 14.876L225.757 13.04C223.507 11.546 222.787 8.792 222.787 6.11V3.41ZM245.063 14.696V10.646C246.305 9.872 247.061 8.684 247.061 7.244C247.061 4.526 244.451 2.78 240.869 2.78C237.323 2.78 234.695 4.526 234.695 7.244C234.677 8.684 235.397 9.872 236.693 10.646V14.696H233.381V16.622H248.393V14.696H245.063ZM240.869 4.652C243.173 4.652 244.721 5.588 244.721 7.244C244.721 8.9 243.173 9.836 240.869 9.836C238.565 9.836 237.035 8.9 237.035 7.244C237.035 5.588 238.565 4.652 240.869 4.652ZM239.051 11.528C239.627 11.636 240.239 11.69 240.869 11.69C241.517 11.69 242.129 11.636 242.705 11.528V14.696H239.051V11.528ZM253.064 5.822L253.154 3.32H250.49L250.58 5.822L250.958 13.184H252.686L253.064 5.822ZM253.154 14.696H250.526V17.252H253.154V14.696Z" fill="#0E7159"/>
<path d="M263.888 20.5898C264.134 20.5898 264.342 20.5078 264.512 20.3438L271.033 13.9541C271.139 13.8604 271.213 13.7593 271.257 13.6509C271.301 13.5425 271.323 13.4238 271.323 13.2949C271.323 13.166 271.301 13.0474 271.257 12.939C271.213 12.8306 271.139 12.7295 271.033 12.6357L264.512 6.24609C264.342 6.08203 264.134 6 263.888 6C263.724 6 263.574 6.03662 263.439 6.10986C263.305 6.18311 263.198 6.28711 263.119 6.42188C263.04 6.55664 263 6.70605 263 6.87012C263 7.11035 263.091 7.32129 263.272 7.50293L269.205 13.2949L263.272 19.0869C263.091 19.2686 263 19.4795 263 19.7197C263 19.8779 263.04 20.0259 263.119 20.1636C263.198 20.3013 263.305 20.4067 263.439 20.48C263.574 20.5532 263.724 20.5898 263.888 20.5898Z" fill="#0E7159"/>
</svg>
