<svg width="136" height="25" viewBox="0 0 136 25" fill="none" xmlns="http://www.w3.org/2000/svg">
<path d="M2.286 11.762C5.184 11.24 7.254 9.854 8.28 7.82C9.36 9.764 11.304 11.15 14.346 11.672L15.246 9.8C11.718 9.278 9.738 7.28 9.54 5.12H14.508V3.23H2.016V5.12H6.984C6.75 7.28 4.878 9.368 1.368 9.89L2.286 11.762ZM9.468 14.696V11.042H7.092V14.696H0.774V16.622H15.786V14.696H9.468ZM29.5292 8.684C29.9072 6.758 29.9072 5.39 29.9072 4.04V2.708H18.5132V4.598H27.5672C27.5672 5.75 27.5132 7.028 27.1712 8.684H16.6592V10.574H31.6712V8.684H29.5292ZM18.4232 18.35H29.8352V12.302H18.4232V18.35ZM20.7632 14.156H27.5132V16.496H20.7632V14.156ZM47.4871 1.97V7.694H43.4371V9.602H47.4871V18.602H49.8631V1.97H47.4871ZM39.0991 5.336H44.2291V3.446H36.7231V14.588H38.0731C41.0971 14.588 43.0591 14.534 45.3091 14.102L45.0751 12.176C43.2031 12.518 41.4571 12.644 39.0991 12.644V5.336ZM68.2889 5.156V1.97H65.9129V10.25H68.2889V7.1H70.4669V5.156H68.2889ZM64.1849 6.2C64.1849 4.022 62.3129 2.438 59.7749 2.438C57.2549 2.438 55.3649 4.022 55.3649 6.2C55.3649 8.414 57.2549 9.98 59.7749 9.98C62.3129 9.98 64.1849 8.414 64.1849 6.2ZM57.6509 6.2C57.6509 5.048 58.5329 4.346 59.7749 4.346C61.0169 4.346 61.8989 5.048 61.8989 6.2C61.8989 7.37 61.0169 8.072 59.7749 8.072C58.5329 8.072 57.6509 7.37 57.6509 6.2ZM59.7209 15.434H68.2889V10.898H57.3449V12.734H65.9489V13.724H57.3629V18.35H68.7569V16.514H59.7209V15.434ZM86.5141 8.216H84.1021V1.97H81.7261V18.548H84.1021V10.178H86.5141V8.216ZM75.5701 3.122C73.0501 3.122 71.2141 5.39 71.2141 9.026C71.2141 12.68 73.0501 14.966 75.5701 14.966C78.0721 14.966 79.9261 12.68 79.9261 9.026C79.9261 5.39 78.0721 3.122 75.5701 3.122ZM75.5701 12.806C74.3281 12.806 73.5001 11.492 73.5001 9.026C73.5001 6.56 74.3281 5.264 75.5701 5.264C76.7941 5.264 77.6401 6.56 77.6401 9.026C77.6401 11.492 76.7941 12.806 75.5701 12.806ZM95.6853 14.696V11.654H100.383V2.996H98.0433V5.57H90.9513V2.996H88.5933V11.654H93.3093V14.696H87.0093V16.622H102.021V14.696H95.6853ZM90.9513 7.442H98.0433V9.764H90.9513V7.442ZM114.306 1.952V18.53H116.7V1.952H114.306ZM103.812 3.68V5.57H109.338C108.996 9.242 107.16 11.852 102.93 13.868L104.172 15.74C110.058 12.914 111.768 8.738 111.768 3.68H103.812Z" fill="#0E7159"/>
<path d="M127.888 20.5898C128.134 20.5898 128.342 20.5078 128.512 20.3438L135.033 13.9541C135.139 13.8604 135.213 13.7593 135.257 13.6509C135.301 13.5425 135.323 13.4238 135.323 13.2949C135.323 13.166 135.301 13.0474 135.257 12.939C135.213 12.8306 135.139 12.7295 135.033 12.6357L128.512 6.24609C128.342 6.08203 128.134 6 127.888 6C127.724 6 127.574 6.03662 127.439 6.10986C127.305 6.18311 127.198 6.28711 127.119 6.42188C127.04 6.55664 127 6.70605 127 6.87012C127 7.11035 127.091 7.32129 127.272 7.50293L133.205 13.2949L127.272 19.0869C127.091 19.2686 127 19.4795 127 19.7197C127 19.8779 127.04 20.0259 127.119 20.1636C127.198 20.3013 127.305 20.4067 127.439 20.48C127.574 20.5532 127.724 20.5898 127.888 20.5898Z" fill="#0E7159"/>
</svg>
