<svg width="151" height="25" viewBox="0 0 151 25" fill="none" xmlns="http://www.w3.org/2000/svg">
<path d="M12.132 1.97V18.548H14.508V1.97H12.132ZM7.182 5.516H10.602V3.554H1.314V5.516H4.77V6.434C4.77 9.26 3.438 12.302 0.648 13.544L1.998 15.434C3.942 14.552 5.274 12.752 6.012 10.574C6.75 12.608 8.046 14.174 9.99 15.02L11.286 13.148C8.514 11.996 7.182 9.134 7.182 6.434V5.516ZM29.5292 8.684C29.9072 6.758 29.9072 5.39 29.9072 4.04V2.708H18.5132V4.598H27.5672C27.5672 5.75 27.5132 7.028 27.1712 8.684H16.6592V10.574H31.6712V8.684H29.5292ZM18.4232 18.35H29.8352V12.302H18.4232V18.35ZM20.7632 14.156H27.5132V16.496H20.7632V14.156ZM51.3391 8.144H48.9271V1.988H46.5511V18.548H48.9271V10.124H51.3391V8.144ZM42.1411 7.298H38.8111V3.284H36.4531V14.714H44.4991V3.284H42.1411V7.298ZM42.1411 12.824H38.8111V9.152H42.1411V12.824ZM60.5102 14.786V12.32H65.5322V10.412H55.9202V8.558H65.1542V3.032H53.5442V4.922H62.8142V6.704H53.5622V12.32H58.1342V14.786H51.8342V16.73H66.8462V14.786H60.5102ZM86.5141 8.342H84.1021V1.97H81.7261V18.548H84.1021V10.322H86.5141V8.342ZM77.2261 3.248H74.8321V5.66C74.8321 8.738 73.5721 11.924 70.7821 13.22L72.2041 15.146C74.0761 14.228 75.3181 12.482 76.0381 10.376C76.7401 12.41 77.8921 13.958 79.6201 14.84L81.0601 12.968C78.3961 11.672 77.2261 8.648 77.2261 5.66V3.248ZM98.5833 9.836V7.856C99.8073 7.298 100.509 6.488 100.509 5.408C100.509 3.428 98.1693 2.222 94.4973 2.222C90.8433 2.222 88.5033 3.428 88.5033 5.408C88.5033 6.47 89.1333 7.28 90.3753 7.838V9.836H87.0093V11.708H101.985V9.836H98.5833ZM94.4973 4.022C96.8193 4.022 98.0613 4.472 98.0613 5.408C98.0613 6.326 96.8193 6.776 94.4973 6.776C92.2473 6.776 90.9513 6.326 90.9513 5.408C90.9513 4.472 92.2473 4.022 94.4973 4.022ZM92.7513 8.45C93.2913 8.522 93.8673 8.558 94.4973 8.558C95.1273 8.558 95.6853 8.522 96.2073 8.468V9.836H92.7513V8.45ZM94.4613 12.536C90.8793 12.536 88.7193 13.616 88.7193 15.542C88.7193 17.486 90.8793 18.566 94.4613 18.566C98.0433 18.566 100.221 17.486 100.221 15.542C100.221 13.616 98.0433 12.536 94.4613 12.536ZM94.4613 16.766C92.2293 16.766 91.1133 16.352 91.1133 15.542C91.1133 14.696 92.2113 14.336 94.4613 14.336C96.7113 14.336 97.8093 14.696 97.8093 15.542C97.8093 16.352 96.6933 16.766 94.4613 16.766ZM118.284 8.45H115.908V1.97H113.532V18.548H115.908V10.412H118.284V8.45ZM108.852 2.258H106.476V4.418H102.804V6.308H112.452V4.418H108.852V2.258ZM107.682 7.244C105.27 7.244 103.47 8.882 103.47 11.186C103.47 13.544 105.27 15.164 107.682 15.164C110.076 15.164 111.858 13.544 111.858 11.186C111.858 8.882 110.076 7.244 107.682 7.244ZM107.682 13.22C106.53 13.22 105.738 12.5 105.738 11.204C105.738 9.908 106.53 9.17 107.682 9.17C108.834 9.17 109.608 9.944 109.608 11.186C109.608 12.482 108.834 13.22 107.682 13.22ZM130.192 1.952V18.53H132.586V1.952H130.192ZM119.698 3.68V5.57H125.224C124.882 9.242 123.046 11.852 118.816 13.868L120.058 15.74C125.944 12.914 127.654 8.738 127.654 3.68H119.698Z" fill="#0E7159"/>
<path d="M142.888 20.5898C143.134 20.5898 143.342 20.5078 143.512 20.3438V20.3438L150.033 13.9541C150.139 13.8604 150.213 13.7593 150.257 13.6509C150.301 13.5425 150.323 13.4238 150.323 13.2949C150.323 13.166 150.301 13.0474 150.257 12.939C150.213 12.8306 150.139 12.7295 150.033 12.6357V12.6357L143.512 6.24609C143.342 6.08203 143.134 6 142.888 6C142.724 6 142.574 6.03662 142.439 6.10986C142.305 6.18311 142.198 6.28711 142.119 6.42188C142.04 6.55664 142 6.70605 142 6.87012C142 7.11035 142.091 7.32129 142.272 7.50293V7.50293L148.205 13.2949L142.272 19.0869C142.091 19.2686 142 19.4795 142 19.7197C142 19.8779 142.04 20.0259 142.119 20.1636C142.198 20.3013 142.305 20.4067 142.439 20.48C142.574 20.5532 142.724 20.5898 142.888 20.5898Z" fill="#0E7159"/>
</svg>
