<svg width="292" height="64" viewBox="0 0 292 64" fill="none" xmlns="http://www.w3.org/2000/svg">
<g clip-path="url(#clip0_54_1114)">
<rect width="292" height="64" rx="8" fill="#0E7159"/>
<path d="M96.784 23.64V38.376H98.896V23.64H96.784ZM92.384 26.792H95.424V25.048H87.168V26.792H90.24V27.608C90.24 30.12 89.056 32.824 86.576 33.928L87.776 35.608C89.504 34.824 90.688 33.224 91.344 31.288C92 33.096 93.152 34.488 94.88 35.24L96.032 33.576C93.568 32.552 92.384 30.008 92.384 27.608V26.792ZM112.248 29.608C112.584 27.896 112.584 26.68 112.584 25.48V24.296H102.456V25.976H110.504C110.504 27 110.456 28.136 110.152 29.608H100.808V31.288H114.152V29.608H112.248ZM102.376 38.2H112.52V32.824H102.376V38.2ZM104.456 34.472H110.456V36.552H104.456V34.472ZM131.635 29.128H129.491V23.656H127.379V38.376H129.491V30.888H131.635V29.128ZM123.459 28.376H120.499V24.808H118.403V34.968H125.555V24.808H123.459V28.376ZM123.459 33.288H120.499V30.024H123.459V33.288ZM139.787 35.032V32.84H144.251V31.144H135.707V29.496H143.915V24.584H133.595V26.264H141.835V27.848H133.611V32.84H137.675V35.032H132.075V36.76H145.419V35.032H139.787ZM162.901 29.304H160.757V23.64H158.645V38.376H160.757V31.064H162.901V29.304ZM154.645 24.776H152.517V26.92C152.517 29.656 151.397 32.488 148.917 33.64L150.181 35.352C151.845 34.536 152.949 32.984 153.589 31.112C154.213 32.92 155.237 34.296 156.773 35.08L158.053 33.416C155.685 32.264 154.645 29.576 154.645 26.92V24.776ZM173.63 30.632V28.872C174.718 28.376 175.342 27.656 175.342 26.696C175.342 24.936 173.262 23.864 169.998 23.864C166.75 23.864 164.67 24.936 164.67 26.696C164.67 27.64 165.23 28.36 166.334 28.856V30.632H163.342V32.296H176.654V30.632H173.63ZM169.998 25.464C172.062 25.464 173.166 25.864 173.166 26.696C173.166 27.512 172.062 27.912 169.998 27.912C167.998 27.912 166.846 27.512 166.846 26.696C166.846 25.864 167.998 25.464 169.998 25.464ZM168.446 29.4C168.926 29.464 169.438 29.496 169.998 29.496C170.558 29.496 171.054 29.464 171.518 29.416V30.632H168.446V29.4ZM169.966 33.032C166.782 33.032 164.862 33.992 164.862 35.704C164.862 37.432 166.782 38.392 169.966 38.392C173.15 38.392 175.086 37.432 175.086 35.704C175.086 33.992 173.15 33.032 169.966 33.032ZM169.966 36.792C167.982 36.792 166.99 36.424 166.99 35.704C166.99 34.952 167.966 34.632 169.966 34.632C171.966 34.632 172.942 34.952 172.942 35.704C172.942 36.424 171.95 36.792 169.966 36.792ZM191.142 29.4H189.03V23.64H186.918V38.376H189.03V31.144H191.142V29.4ZM182.758 23.896H180.646V25.816H177.382V27.496H185.958V25.816H182.758V23.896ZM181.718 28.328C179.574 28.328 177.974 29.784 177.974 31.832C177.974 33.928 179.574 35.368 181.718 35.368C183.846 35.368 185.43 33.928 185.43 31.832C185.43 29.784 183.846 28.328 181.718 28.328ZM181.718 33.64C180.694 33.64 179.99 33 179.99 31.848C179.99 30.696 180.694 30.04 181.718 30.04C182.742 30.04 183.43 30.728 183.43 31.832C183.43 32.984 182.742 33.64 181.718 33.64ZM201.726 23.624V38.36H203.854V23.624H201.726ZM192.398 25.16V26.84H197.31C197.006 30.104 195.374 32.424 191.614 34.216L192.718 35.88C197.95 33.368 199.47 29.656 199.47 25.16H192.398Z" fill="white"/>
</g>
<defs>
<clipPath id="clip0_54_1114">
<rect width="292" height="64" fill="white"/>
</clipPath>
</defs>
</svg>
